<svg id="Layer_1" xmlns="http://www.w3.org/2000/svg" viewBox="0 0 293.6 293.6"><style>.st0{fill:#E8562A;} .st1{fill:#FFFFFF;}</style><path class="st0" d="M156.2 100.9v19.4c8 2.8 14.3 9.1 17.1 17.1h19.4c-3.7-18.3-18.2-32.8-36.5-36.5z"/><path class="st0" d="M173.3 156.2c-3.9 10.9-14.2 18.8-26.5 18.8-15.5 0-28.1-12.6-28.1-28.1 0-12.2 7.8-22.6 18.8-26.5V101c-21.4 4.3-37.5 23.2-37.5 45.9 0 25.9 21 46.9 46.9 46.9 22.7 0 41.6-16.1 45.9-37.5l-19.5-.1z"/><path class="st1" d="M291 143.8c-2.4-2.7-58.6-67.3-144.2-67.3S5 141 2.6 143.8l-2.6 3 2.6 3c2.4 2.7 58.6 67.3 144.2 67.3s141.8-64.5 144.2-67.3l2.6-3-2.6-3zm-83.3 3c0 33.6-27.3 60.9-60.9 60.9s-60.9-27.3-60.9-60.9 27.3-60.9 60.9-60.9 60.9 27.3 60.9 60.9zm-195.1 0c9.5-9.9 42.6-41.3 90.2-54.7-16 12.9-26.3 32.6-26.3 54.7s10.3 41.8 26.2 54.7c-47.5-13.5-80.6-44.8-90.1-54.7zm178.2 54.7c16-12.9 26.3-32.6 26.3-54.7s-10.3-41.8-26.2-54.7c47.5 13.5 80.6 44.8 90.2 54.7-9.6 9.9-42.7 41.3-90.3 54.7z"/><path class="st1" d="M146.8 57.7c39.5 0 78.1 12.3 114.6 36.5l5.2-7.8c-37.5-24.9-78.9-38.1-119.8-38.1-32.6 0-64.9 8.1-95.9 24.1l4.3 8.3c29.7-15.2 60.5-23 91.6-23zM46 85.8l-4.7-8.1c-5 2.9-9.8 5.8-14.3 8.8l5.2 7.8c4.3-2.9 9-5.7 13.8-8.5zM146.8 235.9c-39.5 0-78.1-12.3-114.6-36.5l-5.2 7.8c37.5 24.9 78.9 38.1 119.8 38.1 32.6 0 64.9-8.1 95.9-24.1l-4.3-8.3c-29.7 15.2-60.5 23-91.6 23zM247.6 207.8l4.7 8.1c5-2.9 9.8-5.8 14.3-8.8l-5.2-7.8c-4.3 2.9-9 5.7-13.8 8.5z"/></svg>