<svg id="Layer_1" xmlns="http://www.w3.org/2000/svg" viewBox="0 0 290.6 290.6"><style>.st0{fill:#FFFFFF;} .st1{fill:#393CDD;}</style><path class="st0" d="M257.8 243.7c0 2.6-2.1 4.7-4.7 4.7h-239c-2.6 0-4.7-2.1-4.7-4.7V107.8h248.4v60.9h9.4V75c0-7.8-6.3-14.1-14.1-14.1h-18.8v-14c0-7.8-6.3-14.1-14.1-14.1s-14.1 6.3-14.1 14.1V61H60.9V46.9c0-7.8-6.3-14.1-14.1-14.1s-14.1 6.3-14.1 14.1V61H14.1C6.3 60.9 0 67.2 0 75v168.8c0 7.8 6.3 14.1 14.1 14.1h239.1c7.8 0 14.1-6.3 14.1-14.1v-9.4h-9.4l-.1 9.3zM215.6 46.9c0-2.6 2.1-4.7 4.7-4.7s4.7 2.1 4.7 4.7v18.8c0 2.6-2.1 4.7-4.7 4.7s-4.7-2.1-4.7-4.7V46.9zm-173.4 0c0-2.6 2.1-4.7 4.7-4.7s4.7 2.1 4.7 4.7v18.8c0 2.6-2.1 4.7-4.7 4.7s-4.7-2.1-4.7-4.7V46.9zM14.1 70.3h19.6c1.9 5.4 7.1 9.4 13.2 9.4s11.3-3.9 13.2-9.4h147c1.9 5.4 7.1 9.4 13.2 9.4s11.3-3.9 13.2-9.4h19.6c2.6 0 4.7 2.1 4.7 4.7v23.4H9.4V75c0-2.6 2.1-4.7 4.7-4.7z"/><path class="st1" d="M250.8 239.1c-22 0-39.8-17.9-39.8-39.8s17.9-39.8 39.8-39.8 39.8 17.9 39.8 39.8-17.8 39.8-39.8 39.8z"/><path class="st0" d="M232.3 197.7l-5.2 7.8 17.6 11.7 44.9-54.9-7.3-5.9-39.5 48.3zM56.3 121.9H23.4V150h32.8v-28.1zm-9.4 18.7H32.8v-9.4h14.1v9.4zM103.1 121.9H70.3V150h32.8v-28.1zm-9.3 18.7H79.7v-9.4h14.1v9.4zM150 121.9h-32.8V150H150v-28.1zm-9.4 18.7h-14.1v-9.4h14.1v9.4zM196.9 121.9h-32.8V150h32.8v-28.1zm-9.4 18.7h-14.1v-9.4h14.1v9.4zM243.8 121.9H211V150h32.8v-28.1zm-9.4 18.7h-14.1v-9.4h14.1v9.4zM56.3 164.1H23.4v28.1h32.8v-28.1zm-9.4 18.7H32.8v-9.4h14.1v9.4zM103.1 164.1H70.3v28.1h32.8v-28.1zm-9.3 18.7H79.7v-9.4h14.1v9.4zM150 164.1h-32.8v28.1H150v-28.1zm-9.4 18.7h-14.1v-9.4h14.1v9.4zM196.9 164.1h-32.8v28.1h32.8v-28.1zm-9.4 18.7h-14.1v-9.4h14.1v9.4zM23.4 234.4h32.8v-28.1H23.4v28.1zm9.4-18.8h14.1v9.4H32.8v-9.4zM70.3 234.4h32.8v-28.1H70.3v28.1zm9.4-18.8h14.1v9.4H79.7v-9.4zM117.2 234.4H150v-28.1h-32.8v28.1zm9.4-18.8h14.1v9.4h-14.1v-9.4zM164.1 234.4h32.8v-28.1h-32.8v28.1zm9.3-18.8h14.1v9.4h-14.1v-9.4z"/></svg>