<svg id="Layer_1" xmlns="http://www.w3.org/2000/svg" viewBox="0 0 290.6 290.6"><style>.st0{fill:#E8562A;} .st1{fill:#FFFFFF;}</style><path class="st0" d="M84.4 98.4c-36.2 0-65.6 29.4-65.6 65.6 0 20.8 9.7 39.4 24.9 51.4l24.6-43.1c1.3-2.2 3.6-3.6 6.2-3.6 4.9 0 8.3 4.8 6.8 9.4L65 226.8c6.1 1.9 12.6 2.9 19.3 2.9 36.2 0 65.6-29.4 65.6-65.6s-29.3-65.7-65.5-65.7z"/><path class="st1" d="M84.4 192.2c15.5 0 28.1-12.6 28.1-28.1 0-15.5-12.6-28.1-28.1-28.1s-28.1 12.6-28.1 28.1c0 4.8 1.3 9.4 3.6 13.6l-24.5 42.9c-2.9-2.5-5.7-5.2-8.1-7.9l-1.4-1.7H14.1v65.6h55.7c10.7 0 19.3-8.7 19.3-19.3 0-9.6-6.9-17.6-16.3-19.1-2-.3-4-.8-6.2-1.3l15-44.9c.9.1 1.9.2 2.8.2zm-13.1 55.2c4.8.8 8.4 4.9 8.4 9.8 0 5.5-4.5 10-10 10H23.4v-44.9c2.2 2.3 4.6 4.4 7.1 6.5v.1c-1.6 2.8-2.4 5.9-2.4 9.1v1.5c0 10.1 8.2 18.3 18.3 18.3 7.7 0 14.5-4.8 17.2-12.1 2.7.7 5.3 1.3 7.7 1.7zm5.5-70.7l-21.9 65.7c-1.2 3.7-4.6 6.1-8.5 6.1-4.9 0-8.9-4-8.9-8.9V238c0-1.6.4-3.1 1.2-4.4l33.7-58.9c.4-.8 1.2-1.2 2.1-1.2 1.1 0 1.7.6 2 1s.6 1.1.3 2.2z"/><path class="st0" d="M84.4 145.3c-10.3 0-18.8 8.4-18.7 18.8 0 1.2.2 2.4.4 3.6 2.2-2.2 5.2-3.6 8.4-3.6 3.8 0 7.4 1.8 9.6 4.9 2.2 3.1 2.8 7.1 1.6 10.7l-1.1 3.1c10.2-.1 18.5-8.5 18.5-18.7 0-10.4-8.4-18.8-18.7-18.8z"/><path class="st1" d="M206.3 46.9c31.3 0 84.4-4.9 84.4-23.4S237.6 0 206.3 0s-84.4 4.9-84.4 23.4 53 23.5 84.4 23.5zm0-37.5c46.8 0 74.1 9.3 75 14-.9 4.8-28.2 14.1-75 14.1s-74-9.3-75-14.1c.9-4.7 28.2-14 75-14zM206.3 98.4c31.3 0 84.4-4.9 84.4-23.4V46.9h-9.4V75c-.9 4.8-28.2 14.1-75 14.1-13.1 0-26-.8-37.5-2.3v-7.1h-30.5c-5.3-2.3-6.9-4.2-7-4.7V46.9h-9.4V75c0 1.8.5 3.3 1.3 4.7H0v210.9h150c10.3 0 18.8-8.4 18.8-18.8v-72.6c11.6 1.4 24.4 2.2 37.5 2.2 31.3 0 84.4-4.9 84.4-23.4v-28h-9.4v28.1c-.9 4.8-28.2 14.1-75 14.1-13.2 0-26-.8-37.5-2.3v-42.1c11.6 1.4 24.4 2.2 37.5 2.2 31.3 0 84.4-4.9 84.4-23.4V98.4h-9.4v28.1c-.9 4.8-28.2 14.1-75 14.1-13.1 0-26-.8-37.5-2.3V96.2c11.6 1.4 24.4 2.2 37.5 2.2zm-46.9 173.5c0 5.2-4.2 9.4-9.4 9.4H9.4V89.1h150v182.8z"/><path class="st1" d="M225 243.7c0 7.8-6.3 14.1-14.1 14.1h-19.8l9.8-16.3-8-4.8-15.5 25.8 15.5 25.9 8-4.8-9.8-16.3h19.8c12.9 0 23.4-10.5 23.4-23.4v-32.8H225v32.6zM65.6 46.9c0-7.8 6.3-14.1 14.1-14.1h19.8l-9.8 16.3 8 4.8 15.5-25.8L97.8 2.3l-8 4.8 9.8 16.3H79.7c-12.9 0-23.4 10.5-23.4 23.4v23.4h9.4l-.1-23.3z"/></svg>