<svg id="Layer_1" xmlns="http://www.w3.org/2000/svg" viewBox="0 0 290.6 290.6"><style>.st0{fill:#FFFFFF;} .st1{fill:#393CDD;}</style><path class="st0" d="M248.3 188.3c-.4-7.2-1.9-14.2-4.5-20.9 27.8-15.1 46.8-44.6 46.8-78.4 0-49.1-40-89.1-89.1-89.1s-89.1 40-89.1 89.1c0 19.6 6.4 37.6 17.2 52.4-5 4.8-9.4 10.3-12.8 16.3-4.3-2-9-3-13.8-3-11.5 0-22.1 6.1-28 15.7-4.6-1.1-9.4-1.7-14.2-1.7-33.5 0-60.8 27.4-60.8 61s27.3 60.9 60.9 60.9H239c28.4 0 51.6-23.1 51.6-51.6 0-25.2-17.9-46.3-42.3-50.7zm-84.2-99.2c0-14.3 2.8-26.6 6.9-37 7.6 2.1 16.3 3.7 25.9 4.1v28.3h-4.7v9.4h4.7V122c-9.6.4-18.3 2-25.9 4.1-4.1-10.4-6.9-22.7-6.9-37zm77.1 40c3.9-10.1 6.5-21.9 7-35.3H281c-1 17.5-7.6 33.4-18.1 46.1-3.6-2.4-11.1-6.9-21.7-10.8zm-34.9 34.6v-32.3c8.1.4 15.4 1.7 22 3.4-7.1 13.7-15.9 23.3-22 28.9zm0-41.7V93.7h32.6c-.5 12.3-3.1 23.1-6.7 32.4-7.6-2.1-16.4-3.7-25.9-4.1zm0-107.6c6.1 5.5 15 15.1 22 28.9-6.5 1.7-13.9 3-22 3.4V14.4zm0 41.7c9.6-.4 18.3-2 25.9-4.1 3.6 9.3 6.1 20 6.7 32.4h-32.6V56.1zm41.9 28.3c-.5-13.4-3.2-25.2-7-35.3 10.6-3.9 18.1-8.4 21.7-10.8C273.4 50.9 280 66.9 281 84.4h-32.8zm-10.8-44c-6.5-13.3-14.6-23.1-21.3-29.7 15.4 2.9 29.2 10.2 40.2 20.5-3.6 2.4-10.1 6-18.9 9.2zm-40.5-25.9v32.3c-8.1-.4-15.4-1.7-22-3.4 7-13.8 15.8-23.4 22-28.9zm-31.2 25.9c-8.8-3.2-15.3-6.8-18.9-9.1 10.9-10.4 24.8-17.7 40.2-20.5-6.7 6.5-14.8 16.3-21.3 29.6zm31.2 91v32.3c-6.1-5.5-15-15.1-22-28.9 6.5-1.7 13.9-3 22-3.4zm-9.9 36c-15.4-2.9-29.2-10.2-40.2-20.6 3.6-2.3 10.1-5.9 18.9-9.1 6.5 13.3 14.6 23.1 21.3 29.7zm50.4-29.7c8.8 3.2 15.3 6.8 18.9 9.1-10.9 10.4-24.8 17.7-40.2 20.5 6.7-6.5 14.9-16.3 21.3-29.6zm-97.2-99.4c3.6 2.4 11.1 6.9 21.7 10.8-4.3 11.3-7.2 24.5-7.2 40s2.9 28.7 7.2 40c-10.6 3.9-18.1 8.4-21.7 10.8-11.5-13.8-18.4-31.5-18.4-50.8s7-37 18.4-50.8zm98.9 242.9H60.9c-28.4 0-51.6-23.1-51.6-51.6S32.4 178 60.9 178c5.2 0 10.3.8 15.2 2.3l3.9 1.2 1.7-3.8c3.8-8.4 12.2-13.8 21.3-13.8 4.7 0 9.2 1.4 13.1 4l4.5 3.1 2.3-4.9c3.1-6.5 7.4-12.4 12.5-17.5 16.3 18 39.8 29.4 65.9 29.4 11.9 0 23.3-2.4 33.8-6.7 2.4 6.7 3.8 13.6 3.8 20.5v4.7l4.2.4c21.6 2.1 38 20.2 38 42 .2 23.4-18.8 42.3-42 42.3z"/><path class="st1" d="M220.3 79.7V64.8c-4.1-2.4-8.9-3.9-14.1-3.9-10.4 0-19.5 5.7-24.3 14.1h-66.8c-1.1-3.9-2.6-7.6-4.6-11.1l8-8L98.8 36l-8 8c-3.5-1.9-7.2-3.5-11.1-4.6V28.1H51.6v11.4c-3.9 1.1-7.6 2.6-11.1 4.6l-8-8-19.9 19.8 8 8c-1.9 3.5-3.5 7.2-4.6 11.1H4.7v28.1h11.4c1.1 3.9 2.6 7.6 4.6 11.1l-8 8 19.9 19.9 8-8c3.5 1.9 7.2 3.5 11.1 4.6V150h28.1v-11.4c3.9-1.1 7.6-2.6 11.1-4.6l8 8 19.9-19.9-8-8c1.9-3.5 3.5-7.2 4.6-11.1h66.8c4.9 8.4 13.9 14.1 24.3 14.1 5.1 0 9.9-1.4 14.1-3.9V98.4h-18l-5.4-9.4 5.4-9.4h17.7zM82 117.5H49.2L32.8 89.1l16.4-28.4H82l16.4 28.4L82 117.5z"/><path class="st0" d="M84.7 121.9l19.1-32.8-19.1-32.9H46.5L27.4 89.1l19.1 32.8h38.2zM51.9 65.6h27.4L93 89.1l-13.7 23.4H51.9L38.2 89.1l13.7-23.5z"/></svg>