<svg id="Layer_1" xmlns="http://www.w3.org/2000/svg" viewBox="0 0 295.2 295.2"><style>.st0{fill:#FFFFFF;} .st1{fill:#393CDD;}</style><path class="st0" d="M147.6 166.7c-57.8 0-104.8 47-104.8 104.8v23.8h209.5v-23.8c.1-57.8-46.9-104.8-104.7-104.8zm42.2 19.5c-13.6 29.3-33.4 71.7-41.9 89l-42.4-89c12.7-6.3 27-10 42.1-10 15.2 0 29.5 3.6 42.2 10zm7.1 7.3l11.9 51.8-49.5 28.3c6.5-13.2 17.7-37 37.6-80.1zM136.8 274l-50.4-28.8 12-51.9 38.4 80.7zm-84.4-2.6c0-29.8 13.8-56.4 35.2-73.9L75.5 250l62.5 35.7H52.4v-14.3zm190.5 14.3h-85.6l62.5-35.7-12.1-52.4c21.5 17.5 35.2 44.1 35.2 73.9v14.2zM207 138.1h12c7.9 0 14.3-6.4 14.3-14.3v-14.3h-9.5v14.3c0 2.6-2.1 4.8-4.8 4.8h-5.5c6.5-11.2 10.3-24.2 10.3-38.1 0-42-34.2-76.2-76.2-76.2S71.4 48.5 71.4 90.5s34.2 76.2 76.2 76.2c24 0 45.4-11.2 59.4-28.6zM81 90.5c0-36.8 29.9-66.7 66.7-66.7s66.7 29.9 66.7 66.7c0 14.2-4.5 27.3-12 38.1h-31.7c-2-5.5-7.2-9.5-13.4-9.5h-19c-7.9 0-14.3 6.4-14.3 14.3s6.4 14.3 14.3 14.3h19c6.2 0 11.4-4 13.4-9.5h23.6c-12 11.8-28.5 19-46.6 19-36.8-.1-66.7-30-66.7-66.7zm80.9 42.8c0 2.6-2.1 4.8-4.8 4.8h-19c-2.6 0-4.8-2.1-4.8-4.8s2.1-4.8 4.8-4.8h19c2.7.1 4.8 2.2 4.8 4.8z"/><path class="st0" d="M147.6 9.5c34.4 0 65.1 21.8 76.5 54.3l9-3.1C220.4 24.4 186.1 0 147.6 0S74.8 24.4 62.2 60.7l9 3.1c11.3-32.5 42-54.3 76.4-54.3z"/><path class="st1" d="M71.4 123.8h-4.8c-18.4 0-33.3-15-33.3-33.3s15-33.3 33.3-33.3h4.8v66.6zM228.6 123.8h-4.8V57.1h4.8c18.4 0 33.3 15 33.3 33.3s-15 33.4-33.3 33.4z"/></svg>