<svg id="Layer_1" xmlns="http://www.w3.org/2000/svg" viewBox="0 0 293.1 293.1"><style>.st0{fill:#E8562A;} .st1{fill:#FFFDFD;}</style><path class="st0" d="M132.5 79.7l9.4 140.6h-28.1l56.2 65.6 56.3-65.6h-28.2l9.4-140.6z"/><path class="st1" d="M245 42.2V0H1.3v215.6c0 15.5 12.6 28.1 28.1 28.1h98.3l42.3 49.4 42.3-49.4h51.4c15.5 0 28.1-12.6 28.1-28.1V42.2H245zM10.6 215.6V9.4h225v32.8H130.7l-9.4-18.7H48.1v192.2c0 10.3-8.4 18.8-18.8 18.8s-18.7-8.5-18.7-18.9zm271.9 0c0 10.3-8.4 18.8-18.8 18.8h-43.4l16.1-18.8h-33.3l9-135.6-9.4-.6-9.6 145.6H216l-46 53.7-46.1-53.7h22.9l-9.7-145.6-9.4.6 9 135.6h-33.3l16.1 18.8H50.3c4.5-5 7.2-11.5 7.2-18.8V32.8h58l9.4 18.8h157.6v164z"/></svg>