<svg id="Layer_1" xmlns="http://www.w3.org/2000/svg" viewBox="0 0 290.6 290.6"><style>.st0{fill:#FFFFFF;} .st1{fill:#E8562A;}</style><path class="st0" d="M271.9 63.3h-28.1v9.4h28.1c5.2 0 9.4 4.2 9.4 9.4v140.6H9.4V82c0-5.2 4.2-9.4 9.4-9.4h28.1v-9.4H18.8C8.4 63.3 0 71.7 0 82v159.4c0 10.3 8.4 18.8 18.8 18.8h65.6V279H56.3v9.4h178.1V279h-28.1v-18.8h65.6c10.3 0 18.8-8.4 18.8-18.8V82c-.1-10.3-8.5-18.7-18.8-18.7zm-75 215.6H93.8v-18.8h103.1v18.8zm75-28.1H18.8c-5.2 0-9.4-4.2-9.4-9.4V232h271.9v9.4c0 5.2-4.3 9.4-9.4 9.4z"/><path class="st1" d="M145.3 2.3C83.2 2.3 32.8 52.7 32.8 114.8c0 33.6 14.8 63.8 38.1 84.4h148.7c23.4-20.6 38.1-50.8 38.1-84.4.1-62.1-50.3-112.5-112.4-112.5z"/><path class="st0" d="M140.6 16.4h9.4v14.1h-9.4zM103.277 25.742l8.685-3.595 5.393 13.027-8.685 3.595zM72.418 48.56l6.645-6.65 9.972 9.97-6.644 6.647zM52.553 81.474l3.597-8.685 13.027 5.395-3.597 8.685zM46.9 110.2H61v9.4H46.9zM52.528 148.158l13.026-5.397 3.598 8.685-13.025 5.397zM72.363 181.174l9.97-9.97 6.646 6.646-9.97 9.97zM201.664 177.753l6.645-6.65 9.972 9.97-6.645 6.647zM221.502 151.444l3.597-8.685 13.026 5.395-3.597 8.685zM229.7 110.2h14.1v9.4h-14.1zM221.445 78.257l13.025-5.398 3.6 8.683-13.027 5.398zM201.628 51.864l9.97-9.97 6.647 6.646-9.97 9.97zM173.284 35.064l5.39-13.03 8.687 3.596-5.39 13.028zM126.6 114.8c0 10.3 8.4 18.7 18.8 18.7s18.8-8.4 18.8-18.8-8.4-18.8-18.8-18.8c-3.5 0-6.7 1-9.5 2.7L97.1 60l-6.6 6.6 38.8 38.8c-1.7 2.8-2.7 6-2.7 9.4zm28.1 0c0 5.2-4.2 9.4-9.4 9.4s-9.4-4.2-9.4-9.4 4.2-9.4 9.4-9.4c5.2.1 9.4 4.3 9.4 9.4z"/></svg>