<svg id="Layer_1" xmlns="http://www.w3.org/2000/svg" viewBox="0 0 290.6 290.6"><style>.st0{fill:#E8562A;} .st1{fill:#FFFFFF;}</style><path class="st0" d="M194.9 100.8c-2.3 8.1-6.5 15.3-12.1 21.3V143c0 5.2-4.2 9.4-9.4 9.4h-56.3c-5.2 0-9.4-4.2-9.4-9.4v-21c-5.6-5.9-9.8-13.2-12.1-21.3H42.2v107.8h206.3V100.8h-53.6z"/><path class="st1" d="M271.9 222.7v-136c0-5.2-4.2-9.4-9.4-9.4h-61.8c-4.5-26.6-27.6-46.9-55.4-46.9S94.4 50.8 89.9 77.3H28.1c-5.2 0-9.4 4.2-9.4 9.4v135.9H0V246c0 7.8 6.3 14.1 14.1 14.1h262.5c7.8 0 14.1-6.3 14.1-14.1v-23.4l-18.8.1zM145.3 39.8c25.8 0 46.9 21 46.9 46.9 0 11.9-4.5 23.3-12.8 32.1l-1.3 1.3V143c0 2.6-2.1 4.7-4.7 4.7h-4.7v-28.1h-9.4v28.1H150v-28.1h-9.4v28.1h-9.4v-28.1h-9.4v28.1h-4.7c-2.6 0-4.7-2.1-4.7-4.7v-22.8l-1.3-1.4c-8.2-8.8-12.8-20.2-12.8-32.1.1-25.8 21.2-46.9 47-46.9zM28.1 86.7H89c0 13.7 5 26.8 14.1 37.1V143c0 7.8 6.3 14.1 14.1 14.1h56.3c7.8 0 14.1-6.3 14.1-14.1v-19.1c9.1-10.3 14.1-23.4 14.1-37.1h60.9v135.9H28.1v-136zm140.7 150h-46.9V232h46.9v4.7zm112.5 9.4c0 2.6-2.1 4.7-4.7 4.7H14.1c-2.6 0-4.7-2.1-4.7-4.7V232h103.2v4.7c0 5.2 4.2 9.4 9.4 9.4h46.9c5.2 0 9.4-4.2 9.4-9.4V232H281.4v14.1z"/><path class="st1" d="M121.9 100.8c7.9 0 14.1-8.2 14.1-18.8s-6.2-18.8-14.1-18.8-14.1 8.2-14.1 18.8 6.2 18.8 14.1 18.8zm0-28.1c1.9 0 4.7 3.7 4.7 9.4s-2.8 9.4-4.7 9.4-4.7-3.7-4.7-9.4 2.8-9.4 4.7-9.4zM168.8 100.8c7.9 0 14.1-8.2 14.1-18.8s-6.2-18.8-14.1-18.8-14.1 8.2-14.1 18.8 6.2 18.8 14.1 18.8zm0-28.1c1.9 0 4.7 3.7 4.7 9.4s-2.8 9.4-4.7 9.4-4.7-3.7-4.7-9.4 2.7-9.4 4.7-9.4z"/></svg>