<svg id="Layer_1" xmlns="http://www.w3.org/2000/svg" viewBox="0 0 290.6 290.6"><style>.st0{fill:#FFFFFF;} .st1{fill:#E8562A;}</style><path class="st0" d="M239.1 171.1h-70.3v-9.4h70.3c23.3 0 42.2-18.9 42.2-42.2 0-21.8-16.3-39.8-38-42l-4.2-.4v-4.8c0-33.3-27.3-60.6-60.9-60.6-23.4 0-45 13.7-55 34.9l-2.3 4.9-4.5-3.1c-3.9-2.6-8.4-4-13.1-4-9.2 0-17.5 5.4-21.3 13.8L80.3 62l-4-1.2c-4.9-1.5-10-2.3-15.2-2.3-28.4 0-51.6 23.1-51.6 51.6s23.1 51.6 51.6 51.6H122v9.4H60.9C27.3 171.1 0 143.8 0 110.2s27.3-60.9 60.9-60.9c4.8 0 9.6.6 14.2 1.7 5.9-9.7 16.5-15.7 28-15.7 4.8 0 9.5 1 13.8 3 12.4-21.9 35.9-35.8 61.2-35.8 37.5 0 68.2 29.5 70.2 66.5 24.4 4.4 42.3 25.5 42.3 50.7 0 28.3-23.1 51.4-51.5 51.4z"/><path class="st1" d="M168.8 180.9v-66.1h-46.9v9.4l18.8 14.1-18.8 14.1V181c-19.3 8.9-32.8 28.4-32.8 51.1 0 31.1 25.2 56.3 56.3 56.3 31.1 0 56.3-25.2 56.3-56.3-.1-22.8-13.6-42.3-32.9-51.2zm-23.5 88.6c-10.4 0-18.8-8.4-18.8-18.8s8.4-18.8 18.8-18.8 18.8 8.4 18.8 18.8-8.4 18.8-18.8 18.8z"/><path class="st0" d="M145.3 227.3c-12.9 0-23.4 10.5-23.4 23.4s10.5 23.4 23.4 23.4c12.9 0 23.4-10.5 23.4-23.4s-10.5-23.4-23.4-23.4zm0 37.5c-7.8 0-14.1-6.3-14.1-14.1s6.3-14.1 14.1-14.1 14.1 6.3 14.1 14.1-6.3 14.1-14.1 14.1zM103.1 110.2h84.4v9.4h-84.4z"/></svg>