<svg id="Layer_1" xmlns="http://www.w3.org/2000/svg" viewBox="0 0 285.9 285.9"><style>.st0{fill:#E8562A;} .st1{fill:#FFFFFF;}</style><circle class="st0" cx="158.1" cy="75" r="37.5"/><path class="st1" d="M115.9 9.4h9.4v28.1h-9.4zM153.4 0h9.4v23.4h-9.4zM190.9 23.4h9.4v18.8h-9.4zM120.6 107.8h75v9.4h-75z"/><path class="st1" d="M200.3 285.9h-89.1v-32.8H73.7v-43.7l-25.5-10.2L74 154.8c-.2-2.6-.3-4.9-.3-7.2 0-31 17.2-59 44.9-73.1l4.2 8.4C98.2 95.4 83 120.2 83 147.6c0 2.4.1 4.9.4 7.7l.2 1.5-21.9 37.6 21.3 8.5v40.7h37.5v32.8h70.3v-46.9l2.1-1.4c22.8-14.8 35.4-43.5 35.4-80.7 0-25.5-13.7-49.4-35.7-62.5l4.8-8.1c24.9 14.7 40.3 41.8 40.3 70.6 0 39.3-13.3 70.1-37.5 87.1l.1 51.4z"/><path class="st1" d="M161.8 84.5h-8.7v-2.3c0-2.8.5-5.1 1.4-6.9.9-1.8 2.8-3.9 5.6-6.1 2.8-2.3 4.4-3.7 5-4.5.8-1.1 1.3-2.3 1.3-3.7 0-1.9-.7-3.4-2.2-4.8-1.5-1.3-3.5-2-6-2-2.4 0-4.5.7-6.1 2.1-1.6 1.4-2.8 3.5-3.4 6.3l-8.8-1.1c.2-4.1 2-7.5 5.2-10.3 3.2-2.8 7.4-4.2 12.6-4.2 5.5 0 9.8 1.4 13.1 4.3 3.2 2.9 4.9 6.2 4.9 10 0 2.1-.6 4.1-1.8 6-1.2 1.9-3.7 4.4-7.6 7.7-2 1.7-3.3 3-3.8 4s-.7 2.9-.7 5.5zm-9 14.5v-9.5h9.5V99h-9.5z"/></svg>