<svg id="Layer_1" xmlns="http://www.w3.org/2000/svg" viewBox="0 0 290.6 290.6"><style>.st0{fill:#FFFFFF;} .st1{fill:#E8562A;} .st2{font-family:&apos;FontAwesome&apos;;} .st3{font-size:106.8776px;}</style><path class="st0" d="M225.2 206l-26.4-4.6-20.4-15.3c10.9-8 19.1-18.9 23.7-31.4 11.4-.3 20.6-10.6 20.6-23.4 0-6.9-2.7-13.1-7-17.3v-6.1c0-38.8-31.5-70.3-70.3-70.3S75 69 75 107.8v8.9c-2.9 4-4.7 9-4.7 14.5 0 11.8 7.9 21.5 18.2 23.1 4.5 12.5 12.6 23.4 23.3 31.4l-20 15.7-26.3 4.6c-19.1 3.3-34.5 18.3-38.3 37.3l-9.5 47.3h255.2l-9.5-47.3c-3.8-19-19.1-34-38.2-37.3zm-79.5 75.2h-.8l-22.2-88.9c1.2.6 2.4 1.2 3.6 1.7 6 2.5 12.5 3.8 19 3.8s13-1.3 19-3.8c1.2-.5 2.4-1.1 3.6-1.7l-22.2 88.9zm59.2-136.5c.9-4.4 1.4-8.9 1.4-13.5v-12.7c4.1 2.2 7 7.1 7 12.9 0 6.2-3.6 11.5-8.4 13.3zm-59.6-97.8c33.6 0 60.9 27.3 60.9 60.9h-4.7c-18.9 0-28.7-11.8-29.1-12.3l-2.2-2.8-3.3 1.3c-.3.1-33.9 13.7-77.9 13.7h-4.7c.1-33.5 27.4-60.8 61-60.8zm-65.6 84.3c0-4.6 1.9-8.6 4.7-11.2v11.1c0 4.2.4 8.2 1.1 12.2-3.5-2.4-5.8-6.9-5.8-12.1zm14.1-.1v-14c36.5-.7 64.7-9.9 73.7-13.2 4.3 4.1 14.1 11.7 29.4 13.1v14.1c0 23.8-14.2 45.1-36.2 54.3-9.8 4.1-21 4.1-30.8 0-22-9.2-36.1-30.5-36.1-54.3zM29.2 281.2l7.2-36.1c3-15.2 15.4-27.3 30.7-29.9l20.2-3.5-4.5 16.4 11.7 3.7L83 243.3l28.7 37.9H29.2zm66.1-37l16.6-16.6-17.7-5.7 3.7-13.3L114 196l21.3 85.3h-12l-28-37.1zm60.1 37l21.2-84.8 16.2 12.2 3.7 13.3-17.7 5.7 16.6 16.6-28 37.1h-12zm23.7 0l28.7-37.9-11.5-11.5 11.7-3.7-4.5-16.4 20.2 3.5c15.3 2.7 27.7 14.7 30.7 29.9l7.2 36.1h-82.5z"/><path class="st1" d="M171.2 130.8h9.4v60.9h-9.4zM171.2 201.1h9.4v18.8h-9.4zM110 130.8h9.4v46.9H110zM110 187.1h9.4v18.8H110z"/><text transform="translate(180.606 80.85)" class="st1 st2 st3"></text><g><path class="st0" d="M210.1 49.5h-9l-1.3 4.3h-8.1l9.7-25.8h8.7l9.7 25.8h-8.3l-1.4-4.3zm-1.7-5.5l-2.8-9.3-2.8 9.3h5.6z"/><path class="st0" d="M238.1 49.5h-9l-1.3 4.3h-8.1l9.7-25.8h8.7l9.7 25.8h-8.3l-1.4-4.3zm-1.7-5.5l-2.8-9.3-2.8 9.3h5.6z"/><path class="st0" d="M266.1 49.5h-9l-1.3 4.3h-8.1l9.7-25.8h8.7l9.7 25.8h-8.3l-1.4-4.3zm-1.7-5.5l-2.8-9.3-2.8 9.3h5.6z"/></g></svg>